<?xml version="1.0" encoding="UTF-8"?>
<svg version="1.1" xmlns="http://www.w3.org/2000/svg" width="1024" height="1024">
<path d="M0 0 C1.26747574 -0.00701431 2.53495148 -0.01402863 3.84083557 -0.02125549 C7.90825284 -0.03865829 11.97552226 -0.04568959 16.04296875 -0.046875 C16.73636604 -0.04731686 17.42976334 -0.04775871 18.14417267 -0.04821396 C39.321523 -0.05528952 60.21579726 0.29702162 81.23046875 3.203125 C82.52791016 3.37473145 83.82535156 3.54633789 85.16210938 3.72314453 C143.65552858 11.54078784 199.48814358 29.90921724 252.23046875 56.203125 C253.07657715 56.62416504 253.92268555 57.04520508 254.79443359 57.47900391 C285.9108075 73.09063381 316.02811492 92.85559716 342.33203125 115.703125 C345.042607 118.04108791 347.80743666 120.28376362 350.60546875 122.515625 C362.69795881 132.41732156 373.67554973 143.55288983 384.73046875 154.578125 C385.29686066 155.14183807 385.86325256 155.70555115 386.44680786 156.28634644 C392.5926477 162.41013782 398.63449314 168.56479907 404.23046875 175.203125 C405.10720773 176.21299137 405.98476462 177.22214844 406.86328125 178.23046875 C414.33891552 186.9598536 421.35765877 195.99335659 428.23046875 205.203125 C428.76430176 205.91597656 429.29813477 206.62882813 429.84814453 207.36328125 C443.77820715 226.04405886 456.02998615 245.77915523 467.23046875 266.203125 C467.71725098 267.09016113 468.2040332 267.97719727 468.70556641 268.89111328 C505.89943424 337.21263327 529.14346821 416.79836529 529.43359375 494.875 C529.4441832 496.77799614 529.4441832 496.77799614 529.45498657 498.71943665 C529.4725218 502.79737414 529.47967916 506.87515766 529.48046875 510.953125 C529.48076332 511.64864849 529.48105789 512.34417198 529.48136139 513.06077194 C529.48281163 534.25427082 529.20381651 555.1786444 526.23046875 576.203125 C526.08481476 577.26170715 526.08481476 577.26170715 525.93621826 578.3416748 C521.33238552 611.77811699 513.84691641 644.16393495 503.23046875 676.203125 C502.93317871 677.11658691 502.63588867 678.03004883 502.32958984 678.97119141 C494.6391253 702.51791405 484.2689141 725.0613696 473.23046875 747.203125 C472.59890869 748.4722876 472.59890869 748.4722876 471.95458984 749.76708984 C453.44214442 786.66523419 429.07286511 821.6679031 401.1640625 852.0859375 C399.35120718 854.07092252 397.60038247 856.09599669 395.85546875 858.140625 C391.25638456 863.42742272 386.21521012 868.28455276 381.23046875 873.203125 C378.41716575 876.0026373 375.62405025 878.82023546 372.84765625 881.65625 C366.38187751 888.23321048 359.93386836 894.53279256 352.68359375 900.24609375 C350.39862635 902.06897379 348.25387676 903.97281761 346.10546875 905.953125 C339.19095973 912.16383578 331.6574453 917.62824545 324.23046875 923.203125 C323.59834473 923.68185059 322.9662207 924.16057617 322.31494141 924.65380859 C296.71964706 944.02415107 268.86898202 959.8226347 240.23046875 974.203125 C239.44929687 974.59838379 238.668125 974.99364258 237.86328125 975.40087891 C176.29221833 1006.34614662 103.23264469 1024.15073799 34.42578125 1024.40625 C32.52012642 1024.41670349 32.52012642 1024.41670349 30.57597351 1024.42736816 C26.50243439 1024.44465402 22.42903638 1024.45154328 18.35546875 1024.453125 C17.31519342 1024.45400871 17.31519342 1024.45400871 16.25390244 1024.45491028 C-4.57961921 1024.46740493 -25.09931031 1024.07501068 -45.76953125 1021.203125 C-48.06119512 1020.91013434 -50.3528618 1020.61716574 -52.64453125 1020.32421875 C-139.09077532 1008.77996359 -223.98457781 974.50389701 -298.76953125 916.203125 C-299.46111328 915.65285645 -300.15269531 915.10258789 -300.86523438 914.53564453 C-308.29725949 908.61547658 -315.60781899 902.60849519 -322.609375 896.1796875 C-324.65068541 894.31187002 -326.73141748 892.50365109 -328.83203125 890.703125 C-332.65723853 887.38123446 -336.18872756 883.80344106 -339.7421875 880.1953125 C-341.79388638 878.10583068 -341.79388638 878.10583068 -344.39453125 876.140625 C-347.21627621 873.83867516 -349.40053549 871.23119269 -351.7578125 868.46484375 C-353.95594187 865.99354879 -356.27681243 863.69960971 -358.64453125 861.390625 C-362.98054316 857.10717081 -366.83656821 852.59215013 -370.63671875 847.83203125 C-372.52873914 845.49992553 -374.48599294 843.28608814 -376.51953125 841.078125 C-439.57171715 770.78430191 -478.78952358 674.65771603 -494.97265625 529.43359375 C-494.97971588 528.1663446 -494.98677551 526.89909546 -494.99404907 525.59344482 C-495.01156407 521.52579667 -495.01874132 517.45830298 -495.01953125 513.390625 C-495.01982582 512.69649128 -495.02012039 512.00235756 -495.02042389 511.28718948 C-495.0218751 490.11313702 -494.74015077 469.20831423 -491.76953125 448.203125 C-491.67242859 447.49740356 -491.57532593 446.79168213 -491.47528076 446.0645752 C-486.87957537 412.68715985 -479.57665842 380.14021458 -468.76953125 348.203125 C-468.36395996 347.00300781 -467.95838867 345.80289062 -467.54052734 344.56640625 C-448.47713382 288.92110713 -419.56469153 237.05895538 -382.76953125 191.203125 C-381.99609375 190.23375 -381.22265625 189.264375 -380.42578125 188.265625 C-375.90894461 182.66729226 -371.20523822 177.28756874 -366.32421875 172.00390625 C-365.00194163 170.55425381 -363.68276319 169.10065769 -362.41479492 167.60327148 C-356.73545171 160.91689534 -350.49966153 154.7826268 -344.29077148 148.59399414 C-342.33657501 146.6451563 -340.38777978 144.69103228 -338.43945312 142.73632812 C-332.38759774 136.68094622 -326.3413731 130.70009166 -319.76953125 125.203125 C-318.75934265 124.32675732 -317.75017891 123.44920648 -316.7421875 122.5703125 C-283.53295402 94.13072731 -246.77697436 70.83380029 -207.76953125 51.203125 C-207.00495605 50.81350586 -206.24038086 50.42388672 -205.45263672 50.02246094 C-143.32987696 18.53805267 -69.60712932 0.25948299 0 0 Z " fill="#FBC117" transform="translate(494.76953125,-0.203125)"/>
<path d="M0 0 C2.79563775 2.49384792 4.43253404 5.25215081 6.265625 8.50390625 C6.90056885 9.62361816 7.5355127 10.74333008 8.18969727 11.89697266 C8.52494415 12.4934259 8.86019104 13.08987915 9.20559692 13.70440674 C10.62992079 16.23841553 12.06489886 18.76633761 13.4990387 21.2947998 C14.24053345 22.60249586 14.98144351 23.91052361 15.7217865 25.21887207 C19.30012854 31.54129565 22.92620131 37.83574652 26.5625 44.125 C27.80339067 46.27343447 29.04427608 48.42187197 30.28515625 50.5703125 C30.89762207 51.63024414 31.51008789 52.69017578 32.14111328 53.78222656 C35.26324607 59.18670649 38.38136526 64.59350107 41.5 70 C42.11810547 71.07121094 42.73621094 72.14242187 43.37304688 73.24609375 C46.51222374 78.68646075 49.64999629 84.12762955 52.78515625 89.5703125 C58.80747329 100.02206199 64.84669337 110.46299548 70.9375 120.875 C76.35921178 130.14499777 81.70204915 139.45831752 87.01922607 148.78845215 C92.22045129 157.9128284 97.48027878 167.00132774 102.78344727 176.06689453 C108.93766742 186.59084625 115.02369996 197.15380137 121.10888672 207.71777344 C124.23680148 213.14659942 127.36858448 218.57319281 130.5 224 C131.75001879 226.16665583 133.00001878 228.3333225 134.25 230.5 C134.86875 231.5725 135.4875 232.645 136.125 233.75 C171.75 295.5 171.75 295.5 173.62548828 298.75097656 C174.87371034 300.91447476 176.12208239 303.07788643 177.37060547 305.24121094 C180.52405256 310.70565017 183.67476096 316.17163645 186.8203125 321.640625 C188.08839113 323.84383665 189.35661906 326.04696237 190.625 328.25 C191.23802979 329.31541016 191.85105957 330.38082031 192.48266602 331.47851562 C195.565307 336.82399409 198.67398363 342.15179959 201.83203125 347.453125 C202.43901855 348.47245117 203.04600586 349.49177734 203.67138672 350.54199219 C204.82383722 352.47219544 205.98023579 354.40004851 207.14111328 356.32519531 C207.90464111 357.60281738 207.90464111 357.60281738 208.68359375 358.90625 C209.13275146 359.65197266 209.58190918 360.39769531 210.04467773 361.16601562 C211 363 211 363 211 365 C211.66 365 212.32 365 213 365 C213.32162109 365.63389648 213.64324219 366.26779297 213.97460938 366.92089844 C222.61714709 383.97849459 222.61714709 383.97849459 233 400 C233.98226562 401.38832031 233.98226562 401.38832031 234.984375 402.8046875 C249.25807692 422.77680531 266.33640476 442.1576457 286 457 C286.63212402 457.48146484 287.26424805 457.96292969 287.91552734 458.45898438 C322.98549384 485.02491287 364.35712828 502.83441506 408 509 C408.69351562 509.10296387 409.38703125 509.20592773 410.1015625 509.31201172 C470.21032769 517.95947726 538.70037583 503.23790309 588 467 C588.90492188 466.34330322 588.90492188 466.34330322 589.828125 465.67333984 C615.45394297 447.04039395 636.45591012 425.68443103 655 400 C655.33 400.66 655.66 401.32 656 402 C654.97460937 404.20117188 654.97460937 404.20117188 653.34375 406.96875 C652.74111328 408.00128906 652.13847656 409.03382813 651.51757812 410.09765625 C650.85177734 411.22042969 650.18597656 412.34320312 649.5 413.5 C648.81100063 414.67528434 648.12286205 415.85107369 647.43554688 417.02734375 C646.00464607 419.47463642 644.5700355 421.91969647 643.1328125 424.36328125 C639.88704251 429.88871354 636.69614255 435.44576926 633.5 441 C632.25026352 443.16681868 631.00026252 445.33348481 629.75 447.5 C629.13125 448.5725 628.5125 449.645 627.875 450.75 C581 532 534.125 613.25 487.25 694.5 C486.63116943 695.57266113 486.01233887 696.64532227 485.37475586 697.75048828 C484.12564482 699.91557071 482.87645871 702.08060982 481.62719727 704.24560547 C478.48797691 709.68615706 475.35009437 715.12747216 472.21484375 720.5703125 C468.4817167 727.04985818 464.74327076 733.52630921 461 740 C460.3498291 741.12470703 459.6996582 742.24941406 459.02978516 743.40820312 C457.10625649 746.7322581 455.17880121 750.05400223 453.25 753.375 C452.66532959 754.38578613 452.08065918 755.39657227 451.47827148 756.43798828 C450.93372314 757.37368652 450.3891748 758.30938477 449.828125 759.2734375 C449.3527832 760.09247559 448.87744141 760.91151367 448.38769531 761.75537109 C447.92975586 762.49609863 447.47181641 763.23682617 447 764 C446.35405884 765.12088013 446.35405884 765.12088013 445.69506836 766.2644043 C444 768 444 768 441.3215332 768.50170898 C440.24218506 768.49985596 439.16283691 768.49800293 438.05078125 768.49609375 C436.82649414 768.49899414 435.60220703 768.50189453 434.34082031 768.50488281 C432.99801903 768.48415318 431.65524426 768.46164229 430.3125 768.4375 C429.62861206 768.4310144 428.94472412 768.42452881 428.2401123 768.41784668 C343.79695783 767.60133306 257.96621053 741.96412846 128 660 C127.30841797 659.44973145 126.61683594 658.89946289 125.90429688 658.33251953 C118.47227176 652.41235158 111.16171226 646.40537019 104.16015625 639.9765625 C102.11884584 638.10874502 100.03811377 636.30052609 97.9375 634.5 C94.11229272 631.17810946 90.58080369 627.60031606 87.02734375 623.9921875 C84.97564487 621.90270568 84.97564487 621.90270568 82.375 619.9375 C79.55325504 617.63555016 77.36899576 615.02806769 75.01171875 612.26171875 C72.81358938 609.79042379 70.49271882 607.49648471 68.125 605.1875 C63.78898809 600.90404581 59.93296304 596.38902513 56.1328125 591.62890625 C54.24079211 589.29680053 52.28353831 587.08296314 50.25 584.875 C-12.8021859 514.58117691 -52.01999233 418.45459103 -68.203125 273.23046875 C-68.21018463 271.9632196 -68.21724426 270.69597046 -68.22451782 269.39031982 C-68.24203282 265.32267167 -68.24921007 261.25517798 -68.25 257.1875 C-68.25029457 256.49336628 -68.25058914 255.79923256 -68.25089264 255.08406448 C-68.25234385 233.91001202 -67.97061952 213.00518923 -65 192 C-64.90289734 191.29427856 -64.80579468 190.58855713 -64.70574951 189.8614502 C-60.11004412 156.48403485 -52.80712717 123.93708958 -42 92 C-41.39164307 90.19982422 -41.39164307 90.19982422 -40.77099609 88.36328125 C-18.65607002 23.81067812 -18.65607002 23.81067812 0 0 Z " fill="#279947" transform="translate(68,256)"/>
<path d="M0 0 C1.26747574 -0.00701431 2.53495148 -0.01402863 3.84083557 -0.02125549 C7.90825284 -0.03865829 11.97552226 -0.04568959 16.04296875 -0.046875 C16.73636604 -0.04731686 17.42976334 -0.04775871 18.14417267 -0.04821396 C39.321523 -0.05528952 60.21579726 0.29702162 81.23046875 3.203125 C82.52791016 3.37473145 83.82535156 3.54633789 85.16210938 3.72314453 C143.65552858 11.54078784 199.48814358 29.90921724 252.23046875 56.203125 C253.07657715 56.62416504 253.92268555 57.04520508 254.79443359 57.47900391 C285.9108075 73.09063381 316.02811492 92.85559716 342.33203125 115.703125 C345.042607 118.04108791 347.80743666 120.28376362 350.60546875 122.515625 C362.69795881 132.41732156 373.67554973 143.55288983 384.73046875 154.578125 C385.29686066 155.14183807 385.86325256 155.70555115 386.44680786 156.28634644 C392.5926477 162.41013782 398.63449314 168.56479907 404.23046875 175.203125 C405.10720773 176.21299137 405.98476462 177.22214844 406.86328125 178.23046875 C414.33891552 186.9598536 421.35765877 195.99335659 428.23046875 205.203125 C428.76430176 205.91597656 429.29813477 206.62882813 429.84814453 207.36328125 C436.46633741 216.23854568 442.70901009 225.30911899 448.66796875 234.640625 C449.23507568 235.5277417 449.80218262 236.4148584 450.38647461 237.32885742 C453.21970836 241.82126366 455.9005138 246.36052753 458.42993164 251.03149414 C458.95800919 252.00502335 459.48608673 252.97855255 460.03016663 253.98158264 C460.62431618 255.08124611 460.62431618 255.08124611 461.23046875 256.203125 C460.26140697 256.20372209 459.29234519 256.20431918 458.29391789 256.20493436 C400.76588183 256.24073212 343.23789386 256.29760417 285.70990683 256.38104595 C278.79114255 256.39107595 271.87237799 256.4009114 264.95361328 256.41064453 C264.26516237 256.41161634 263.57671145 256.41258814 262.86739839 256.4135894 C240.60677652 256.44492114 218.34616671 256.46343961 196.08552662 256.47521747 C172.53271945 256.48774932 148.97997951 256.51508489 125.42720485 256.55773807 C111.33776126 256.58278311 97.24840686 256.59624887 83.1589407 256.59455457 C73.47654992 256.59452465 63.7942495 256.60928729 54.11189398 256.63528928 C48.53888535 256.64983102 42.96606196 256.6582288 37.3930378 256.64892769 C14.62970265 256.61524256 -7.33121672 256.97310835 -29.76953125 261.203125 C-31.51448949 261.50867034 -33.25976216 261.81242735 -35.0053978 262.11407852 C-55.29086357 265.62716783 -75.34714143 273.11602702 -93.76953125 282.203125 C-94.59614258 282.60756836 -95.42275391 283.01201172 -96.27441406 283.42871094 C-118.28655108 294.29981094 -138.12118604 307.84450621 -156.01953125 324.640625 C-158.49632419 326.94854569 -161.02181867 329.17638709 -163.58203125 331.390625 C-167.70292846 335.05609329 -171.26027274 338.95472476 -174.76953125 343.203125 C-175.22312012 343.73905273 -175.67670898 344.27498047 -176.14404297 344.82714844 C-188.81288304 359.79978205 -199.69809151 375.80797508 -208.76953125 393.203125 C-209.19588867 394.01249512 -209.62224609 394.82186523 -210.06152344 395.65576172 C-241.09773009 455.28147622 -245.64431419 524.83727653 -226.22265625 588.87451172 C-223.97604829 595.94817466 -221.26364083 602.82740186 -218.3972168 609.67089844 C-216.79767347 613.49971415 -215.34713996 617.05941034 -214.76953125 621.203125 C-217.61505165 617.79478854 -219.95164727 614.36845516 -222.1328125 610.50390625 C-222.76453369 609.39063965 -223.39625488 608.27737305 -224.04711914 607.13037109 C-224.37825714 606.54213562 -224.70939514 605.95390015 -225.05056763 605.34783936 C-226.46448561 602.83626185 -227.88805775 600.33019984 -229.31089783 597.82366943 C-230.04680668 596.52695964 -230.78220501 595.22995999 -231.5171051 593.93267822 C-235.08910954 587.62876277 -238.70580653 581.35099412 -242.33203125 575.078125 C-243.57161992 572.93229475 -244.81120325 570.78646141 -246.05078125 568.640625 C-246.66308594 567.58101562 -247.27539062 566.52140625 -247.90625 565.4296875 C-249.78988175 562.16788493 -251.67075446 558.90450656 -253.55078125 555.640625 C-259.57392864 545.18599549 -265.6147557 534.74264058 -271.70703125 524.328125 C-277.12874303 515.05812723 -282.4715804 505.74480748 -287.78875732 496.41467285 C-292.98998254 487.2902966 -298.24981003 478.20179726 -303.55297852 469.13623047 C-309.70719867 458.61227875 -315.79323121 448.04932363 -321.87841797 437.48535156 C-325.00633273 432.05652558 -328.13811573 426.62993219 -331.26953125 421.203125 C-332.51955004 419.03646917 -333.76955003 416.8698025 -335.01953125 414.703125 C-335.63828125 413.630625 -336.25703125 412.558125 -336.89453125 411.453125 C-387.51953125 323.703125 -387.51953125 323.703125 -389.39501953 320.45214844 C-390.64324159 318.28865024 -391.89161364 316.12523857 -393.14013672 313.96191406 C-396.29358381 308.49747483 -399.44429221 303.03148855 -402.58984375 297.5625 C-403.22059814 296.4681665 -403.85135254 295.37383301 -404.5012207 294.24633789 C-405.75291871 292.06914197 -406.99895626 289.88868095 -408.23901367 287.70483398 C-411.27951493 282.3773699 -414.40840599 277.17049611 -417.8125 272.06640625 C-418.44655762 271.08768555 -419.08061523 270.10896484 -419.73388672 269.10058594 C-420.93068164 267.26476261 -422.16367988 265.4518372 -423.43798828 263.66894531 C-425.08047896 261.11128829 -426.17177167 259.18728911 -426.76953125 256.203125 C-425.51487088 252.0169596 -423.26224764 248.75851373 -420.76953125 245.203125 C-419.83187802 243.6636778 -418.90169085 242.1196482 -417.98046875 240.5703125 C-417.04013103 239.0697876 -416.09470035 237.5724438 -415.14453125 236.078125 C-414.37520264 234.86552002 -414.37520264 234.86552002 -413.59033203 233.62841797 C-405.30692654 220.68449236 -396.32892104 208.23388306 -386.76953125 196.203125 C-386.26276855 195.56487793 -385.75600586 194.92663086 -385.23388672 194.26904297 C-379.10432949 186.57715796 -372.88738515 179.02937089 -366.18359375 171.828125 C-364.91247098 170.44593325 -363.64640897 169.05783756 -362.43237305 167.62524414 C-356.74696907 160.9312117 -350.50656186 154.78950461 -344.29077148 148.59399414 C-342.33657501 146.6451563 -340.38777978 144.69103228 -338.43945312 142.73632812 C-332.38759774 136.68094622 -326.3413731 130.70009166 -319.76953125 125.203125 C-318.75934265 124.32675732 -317.75017891 123.44920648 -316.7421875 122.5703125 C-283.53295402 94.13072731 -246.77697436 70.83380029 -207.76953125 51.203125 C-207.00495605 50.81350586 -206.24038086 50.42388672 -205.45263672 50.02246094 C-143.32987696 18.53805267 -69.60712932 0.25948299 0 0 Z " fill="#E0382B" transform="translate(494.76953125,-0.203125)"/>
<path d="M0 0 C2.92005104 0.01073638 5.83948883 0.00003988 8.75952148 -0.01269531 C18.67137698 -0.0202252 28.11672731 0.29086166 37.85913086 2.26074219 C38.59043213 2.39174316 39.3217334 2.52274414 40.07519531 2.65771484 C41.88243725 2.98160956 43.68367052 3.33855654 45.48413086 3.69824219 C46.63139648 3.92382812 47.77866211 4.14941406 48.96069336 4.38183594 C74.59468913 10.1610434 99.65169446 20.59510304 120.85913086 36.26074219 C121.89682617 37.01613281 122.93452148 37.77152344 124.00366211 38.54980469 C131.59567099 44.17539959 138.59291383 50.34803519 145.41479492 56.87939453 C146.69714704 58.10582257 147.99210747 59.31903706 149.28881836 60.53027344 C185.02897796 94.80775747 205.54265897 146.42542919 207.10522461 195.40136719 C208.11786259 252.37247075 186.61770447 305.28565066 147.16674805 346.24047852 C140.24402101 353.27065595 132.80251751 359.42228495 124.85913086 365.26074219 C123.79952148 366.04191406 122.73991211 366.82308594 121.64819336 367.62792969 C98.63277261 384.05127931 72.51453067 395.51378674 44.85913086 401.26074219 C44.00834961 401.463125 43.15756836 401.66550781 42.28100586 401.87402344 C-7.0346262 413.16833777 -61.00207639 400.90981492 -103.53100586 374.79296875 C-116.82233122 366.26953182 -128.6660939 356.05672791 -140.14086914 345.26074219 C-140.84985352 344.60589844 -141.55883789 343.95105469 -142.28930664 343.27636719 C-173.91622008 313.06943762 -196.35220834 264.42196584 -198.24743652 220.80838013 C-198.30366343 218.31423885 -198.33153881 215.82188999 -198.34399414 213.32714844 C-198.34969421 212.40973373 -198.35539429 211.49231903 -198.36126709 210.54710388 C-198.37064912 208.61515429 -198.37722374 206.68318918 -198.38110352 204.7512207 C-198.39074149 201.86151585 -198.42180298 198.97254449 -198.45336914 196.08300781 C-198.54961203 179.46968944 -196.5866226 163.74553374 -191.95336914 147.76074219 C-191.65148682 146.70741699 -191.34960449 145.6540918 -191.03857422 144.56884766 C-181.42385021 112.03997621 -163.49138311 83.62686387 -140.14086914 59.26074219 C-139.4305957 58.50921875 -138.72032227 57.75769531 -137.98852539 56.98339844 C-113.20273852 31.38662467 -79.33284482 13.82917634 -45.14086914 5.07324219 C-44.16786865 4.8228418 -43.19486816 4.57244141 -42.19238281 4.31445312 C-28.03068533 0.82217167 -14.51987404 -0.06346419 0 0 Z " fill="#1A73E8" transform="translate(508.140869140625,309.7392578125)"/>
<path d="M0 0 C0.79341797 0.54769043 1.58683594 1.09538086 2.40429688 1.65966797 C13.80226614 9.60514972 24.11317135 18.25508755 34 28 C35.31496108 29.27618912 36.6300679 30.55222808 37.9453125 31.828125 C45.12996985 38.84945434 51.93418785 45.97080743 58 54 C58.47614746 54.62148926 58.95229492 55.24297852 59.44287109 55.88330078 C101.14129413 110.58571382 118.56776691 178.52667243 109.90625 246.62109375 C103.61411586 292.28652845 85.31159419 336.2552584 56 372 C55.57348145 372.52803223 55.14696289 373.05606445 54.70751953 373.60009766 C41.90954187 389.38003703 27.49435677 404.09611722 11 416 C10.34854004 416.47985352 9.69708008 416.95970703 9.02587891 417.45410156 C-21.48989011 439.9105962 -55.05763306 454.739975 -92 463 C-92.73379883 463.16870605 -93.46759766 463.33741211 -94.22363281 463.51123047 C-131.5186393 471.95761297 -172.24716525 469.83276449 -209 460 C-209.92876953 459.75266113 -210.85753906 459.50532227 -211.81445312 459.25048828 C-239.98397586 451.58233214 -267.25269551 439.04717215 -291 422 C-292.0209375 421.27296875 -293.041875 420.5459375 -294.09375 419.796875 C-313.72055192 405.43831991 -332.45619154 388.38796068 -346.77441406 368.66992188 C-348.0460729 366.93722338 -349.35789797 365.24157428 -350.6796875 363.546875 C-373.30241163 334.18512529 -387.08919142 298.94666065 -395 263 C-395.16725586 262.24928223 -395.33451172 261.49856445 -395.50683594 260.72509766 C-409.25178766 197.74957154 -394.93981006 129.00426941 -360.875 74.8125 C-348.34526743 55.3393337 -332.82127788 35.89217511 -315 21 C-313.99536472 20.1129722 -312.99295179 19.22342409 -311.9921875 18.33203125 C-272.59857548 -16.52677484 -223.66189259 -35.82861776 -172 -43 C-170.89325928 -43.15903809 -170.89325928 -43.15903809 -169.76416016 -43.32128906 C-111.67673514 -50.81557419 -47.6647452 -33.05482222 0 0 Z M-198.5 16.1875 C-199.5533252 16.48938232 -200.60665039 16.79126465 -201.69189453 17.10229492 C-234.98733517 26.94359769 -262.90204516 45.38671291 -288 69 C-288.70898438 69.65484375 -289.41796875 70.3096875 -290.1484375 70.984375 C-315.43133889 95.13212571 -332.63695426 129.52116522 -341.1875 163 C-341.43773926 163.97267822 -341.68797852 164.94535645 -341.94580078 165.94750977 C-345.43927518 180.10919048 -346.32420709 193.62083235 -346.26074219 208.14086914 C-346.25000581 211.06092018 -346.26070231 213.98035797 -346.2734375 216.90039062 C-346.28076032 226.81770641 -345.94514687 236.24904038 -344 246 C-343.80019531 247.23492188 -343.60039062 248.46984375 -343.39453125 249.7421875 C-340.01487404 267.93336254 -334.16882924 285.41576536 -326 302 C-325.68450195 302.6487207 -325.36900391 303.29744141 -325.04394531 303.96582031 C-302.28462909 350.26275062 -259.45624828 386.97155492 -210.90942383 403.98486328 C-157.82271363 421.7535354 -101.71137879 417.94141665 -51.5300293 392.93359375 C-32.68823822 383.20343295 -16.38645386 370.50842252 -1 356 C0.175625 354.90558594 0.175625 354.90558594 1.375 353.7890625 C7.98448767 347.43923328 13.51001958 340.31266269 19 333 C19.62777344 332.16726563 20.25554687 331.33453125 20.90234375 330.4765625 C37.80968055 307.1643287 48.3718203 280.90150469 55 253 C55.19327881 252.19377197 55.38655762 251.38754395 55.58569336 250.55688477 C62.49856801 220.73560009 60.41456201 187.259727 52 158 C51.77892578 157.22188965 51.55785156 156.4437793 51.33007812 155.64208984 C45.38558814 135.23509068 36.39813693 115.31659345 24 98 C23.28457031 96.99453125 22.56914063 95.9890625 21.83203125 94.953125 C8.9978993 77.41693054 -5.46731504 61.88667364 -23 49 C-24.05960938 48.21882813 -25.11921875 47.43765625 -26.2109375 46.6328125 C-49.21241006 30.21941603 -75.35012924 18.71469145 -103 13 C-103.96679688 12.78601563 -104.93359375 12.57203125 -105.9296875 12.3515625 C-114.86901594 10.43002461 -123.80696806 9.84244091 -132.93359375 9.796875 C-133.85100845 9.79117493 -134.76842316 9.78547485 -135.71363831 9.77960205 C-137.6455879 9.77022003 -139.57755301 9.7636454 -141.50952148 9.75976562 C-144.39922634 9.75012765 -147.2881977 9.71906616 -150.17773438 9.6875 C-166.79105275 9.59125711 -182.51520845 11.55424655 -198.5 16.1875 Z " fill="#FEFEFE" transform="translate(656,300)"/>
<path d="M0 0 C0.33 0.66 0.66 1.32 1 2 C0.00390625 4.1640625 0.00390625 4.1640625 -1.4375 6.625 C-1.91058594 7.44226563 -2.38367188 8.25953125 -2.87109375 9.1015625 C-3.24363281 9.72804688 -3.61617187 10.35453125 -4 11 C-4.66 10.67 -5.32 10.34 -6 10 C-4.34832443 6.4213696 -2.21713508 3.25179812 0 0 Z " fill="#3A9B49" transform="translate(723,656)"/>
</svg>
