<?xml version="1.0" encoding="UTF-8"?>
<svg version="1.1" xmlns="http://www.w3.org/2000/svg" width="512" height="512">
<path d="M0 0 C0.90540527 0.18723633 1.81081055 0.37447266 2.74365234 0.56738281 C41.75364457 8.91276818 77.32005745 27.46987809 107 54 C107.55171875 54.49000488 108.1034375 54.98000977 108.671875 55.48486328 C153.52578342 95.49074318 179.93402272 152.73035951 183.72265625 212.5 C185.38477242 243.46952559 181.63730112 274.78321154 171 304 C170.71817871 304.7847168 170.43635742 305.56943359 170.14599609 306.37792969 C163.41132908 324.86014671 154.65796357 343.09844233 143 359 C142.31808594 359.95261719 141.63617188 360.90523438 140.93359375 361.88671875 C128.15874262 379.36929677 113.3196731 395.92142634 96 409 C95.36255859 409.48678223 94.72511719 409.97356445 94.06835938 410.47509766 C83.22679176 418.71138552 72.11762441 425.79987804 60 432 C59.19224121 432.41878418 58.38448242 432.83756836 57.55224609 433.26904297 C4.80941821 460.37427909 -59.13185539 465.91992564 -115.8125 448.1875 C-118.89371097 447.17445445 -121.94984077 446.10275484 -125 445 C-125.78616699 444.71817871 -126.57233398 444.43635742 -127.38232422 444.14599609 C-147.61090116 436.77349603 -166.75538356 426.91471818 -184 414 C-184.88558594 413.34547852 -184.88558594 413.34547852 -185.7890625 412.67773438 C-233.77051462 377.00870334 -266.81245144 323.19752474 -276 264 C-276.17660156 262.86973389 -276.35320312 261.73946777 -276.53515625 260.57495117 C-278.10806515 249.43889662 -278.39950604 238.42401246 -278.375 227.1875 C-278.37445618 226.24556793 -278.37391235 225.30363586 -278.37335205 224.3331604 C-278.21744793 165.3858129 -255.8423656 109.57819758 -215 67 C-214.41621582 66.38366699 -213.83243164 65.76733398 -213.23095703 65.13232422 C-203.55971062 54.96460211 -193.4144823 46.1524064 -182 38 C-181.12287354 37.35587158 -181.12287354 37.35587158 -180.22802734 36.69873047 C-153.59148225 17.1940798 -122.18423134 5.36156772 -90 -1 C-89.11328613 -1.17789062 -88.22657227 -1.35578125 -87.31298828 -1.5390625 C-59.16747491 -6.88697531 -27.94857286 -5.8402847 0 0 Z " fill="#D0322A" transform="translate(303,29)"/>
<path d="M0 0 C0 17.16 0 34.32 0 52 C-7.92 52.495 -7.92 52.495 -16 53 C-26.29341766 55.48521112 -35.00565479 60.06105393 -43 67 C-43.90105469 67.77859375 -44.80210937 68.5571875 -45.73046875 69.359375 C-56.61864549 79.49505434 -67.3556488 94.4225952 -71 109 C-57.47 109 -43.94 109 -30 109 C-30 125.83 -30 142.66 -30 160 C-50.79 160.33 -71.58 160.66 -93 161 C-94.98 165.95 -96.96 170.9 -99 176 C-100.83642042 179.67030084 -102.68226712 183.24265956 -104.6875 186.8125 C-105.20151367 187.73973877 -105.71552734 188.66697754 -106.24511719 189.62231445 C-115.73164604 206.60134214 -125.61238405 222.77863572 -139 237 C-139.60070312 237.67675781 -140.20140625 238.35351562 -140.8203125 239.05078125 C-155.38685321 254.78390638 -176.43758497 262.79002278 -197 267 C-198.5159375 267.33644531 -198.5159375 267.33644531 -200.0625 267.6796875 C-208.97556373 269.44776808 -216.51597899 269 -226 269 C-226 252.17 -226 235.34 -226 218 C-219.4 217.01 -212.8 216.02 -206 215 C-202.20386523 213.79213894 -199.39785408 212.81718852 -196 211 C-194.98292969 210.45988281 -193.96585938 209.91976562 -192.91796875 209.36328125 C-187.57072712 206.3825335 -183.11236866 203.52360553 -179 199 C-178.34 199 -177.68 199 -177 199 C-176.74347656 198.42894531 -176.48695313 197.85789062 -176.22265625 197.26953125 C-174.87390139 194.76593197 -173.28508203 192.8486111 -171.4375 190.6875 C-166.19710513 184.2246622 -162.08698452 177.22405041 -158 170 C-157.63841797 169.36336426 -157.27683594 168.72672852 -156.90429688 168.07080078 C-152.58744149 160.40661969 -148.93195156 152.82404413 -146.0078125 144.51171875 C-145 142 -145 142 -143 140 C-142.14101308 137.83515108 -142.14101308 137.83515108 -141.4140625 135.30859375 C-141.12273437 134.36306641 -140.83140625 133.41753906 -140.53125 132.44335938 C-140.2321875 131.45142578 -139.933125 130.45949219 -139.625 129.4375 C-137.70709442 123.08549854 -135.67673295 116.97213877 -132.88818359 110.94555664 C-131.77665275 108.51076025 -130.87412449 106.02871727 -130 103.5 C-126.45864025 93.61427376 -121.73641029 84.35307988 -117 75 C-116.34 75 -115.68 75 -115 75 C-114.9175 74.32066406 -114.835 73.64132813 -114.75 72.94140625 C-113.79614479 69.20050534 -112.00514618 66.19199362 -110 62.9375 C-109.59700684 62.2777417 -109.19401367 61.6179834 -108.77880859 60.93823242 C-91.14411106 32.50391168 -66.89003228 11.87484636 -34 4 C-32.76636719 3.69449219 -31.53273438 3.38898438 -30.26171875 3.07421875 C-19.8096764 0.5766186 -11.10143088 0 0 0 Z " fill="#FEFCFC" transform="translate(369,110)"/>
<path d="M0 0 C0.66 0.33 1.32 0.66 2 1 C-3.94 6.94 -9.88 12.88 -16 19 C-16.66 18.67 -17.32 18.34 -18 18 C-6.66287016 5.33029613 -6.66287016 5.33029613 0 0 Z " fill="#F6D9D8" transform="translate(291,135)"/>
</svg>
