<?xml version="1.0" encoding="UTF-8"?>
<svg version="1.1" xmlns="http://www.w3.org/2000/svg" width="256" height="256">
<path d="M0 0 C84.48 0 168.96 0 256 0 C256 84.15 256 168.3 256 255 C171.52 255 87.04 255 0 255 C0 170.85 0 86.7 0 0 Z " fill="#1E6FB5" transform="translate(0,1)"/>
<path d="M0 0 C0 63.36 0 126.72 0 192 C-25.06774932 188.58167055 -25.06774932 188.58167055 -35.625 186.6875 C-38.09098023 186.25426466 -40.55713498 185.82202183 -43.0234375 185.390625 C-44.30702148 185.16568359 -45.59060547 184.94074219 -46.91308594 184.70898438 C-54.35213775 183.41307672 -61.80146264 182.1774696 -69.25 180.9375 C-70.01039581 180.81068848 -70.77079163 180.68387695 -71.55422974 180.55322266 C-82.58694288 178.71421638 -93.62545308 176.91685927 -104.67871094 175.20483398 C-105.61102539 175.05860596 -106.54333984 174.91237793 -107.50390625 174.76171875 C-108.70768921 174.5754895 -108.70768921 174.5754895 -109.93579102 174.38549805 C-112 174 -112 174 -115 173 C-115 122.18 -115 71.36 -115 19 C-96.70621731 15.56991575 -96.70621731 15.56991575 -88.3046875 14.28125 C-86.41535254 13.98575405 -84.52602999 13.6901788 -82.63671875 13.39453125 C-79.75005002 12.9457119 -76.86319074 12.498176 -73.97607422 12.05224609 C-64.11159362 10.52526255 -54.32820072 8.92920368 -44.58398438 6.74560547 C-37.72430028 5.3185295 -30.79558429 4.28425058 -23.87329102 3.21020508 C-21.27738144 2.80704589 -18.68260617 2.39709526 -16.08789062 1.98632812 C-14.42974908 1.72616969 -12.77154813 1.46638959 -11.11328125 1.20703125 C-10.34148026 1.08519974 -9.56967926 0.96336823 -8.77449036 0.83784485 C-5.81597433 0.38110107 -2.99870722 0 0 0 Z " fill="#FEFEFE" transform="translate(143,32)"/>
<path d="M0 0 C8.83788422 1.35285053 16.66096599 6.48602422 22.11328125 13.4765625 C27.8248805 21.65851602 28.11203206 30.80596576 27.11328125 40.4765625 C24.3127299 49.18827759 19.42689397 56.31580956 11.5390625 61.0078125 C5.4788971 64.05057337 0.85726288 65.02934788 -5.88671875 64.4765625 C-3.69323491 67.42932921 -1.61239372 69.72910239 1.36328125 71.8515625 C4.11328125 74.4765625 4.11328125 74.4765625 4.67578125 78.1015625 C4.11328125 81.4765625 4.11328125 81.4765625 3.05078125 83.4765625 C-0.11414843 85.11007459 -2.4908122 84.25519918 -5.88671875 83.4765625 C-9.58282946 80.83584572 -12.69115536 77.61911574 -15.86914062 74.38623047 C-17.38693587 72.85134294 -18.938445 71.35758299 -20.49609375 69.86328125 C-21.47231356 68.89028454 -22.44635222 67.91509349 -23.41796875 66.9375 C-24.30033203 66.05884277 -25.18269531 65.18018555 -26.09179688 64.27490234 C-27.88671875 61.4765625 -27.88671875 61.4765625 -27.85351562 57.76025391 C-26.88671875 54.4765625 -26.88671875 54.4765625 -23.88671875 52.4765625 C-21.4699707 52.22119141 -21.4699707 52.22119141 -18.625 52.203125 C-17.58794922 52.1825 -16.55089844 52.161875 -15.48242188 52.140625 C-13.31322797 52.11481663 -11.14393133 52.09644905 -8.97460938 52.0859375 C-1.06927078 51.9101548 4.74516413 50.93331428 10.48828125 45.0390625 C14.30403005 39.02192016 15.04788962 33.49104427 14.11328125 26.4765625 C12.09179927 20.90103314 8.4623305 17.3367335 3.375 14.4296875 C0.07143829 13.03751296 -3.24103239 12.48112331 -6.78515625 12.03125 C-8.88671875 11.4765625 -8.88671875 11.4765625 -10.88671875 8.4765625 C-11.23691976 5.67495439 -11.39307226 4.15442285 -9.67578125 1.85546875 C-6.63872767 -0.48531709 -3.71540511 -0.10826346 0 0 Z " fill="#FAFCFD" transform="translate(200.88671875,95.5234375)"/>
<path d="M0 0 C3.96 0 7.92 0 12 0 C12 17.82 12 35.64 12 54 C18.27 54 24.54 54 31 54 C31 58.29 31 62.58 31 67 C23.94043512 67.10231253 16.92450518 66.91071344 9.875 66.5625 C9.02123779 66.52326416 8.16747559 66.48402832 7.2878418 66.44360352 C1.11947661 66.11947661 1.11947661 66.11947661 0 65 C-0.09409479 62.97505769 -0.11743122 60.9468013 -0.11352539 58.91967773 C-0.11344986 57.61840439 -0.11337433 56.31713104 -0.11329651 54.97642517 C-0.10818909 53.54548098 -0.10297308 52.11453718 -0.09765625 50.68359375 C-0.09579203 49.2277074 -0.09436815 47.77182043 -0.09336853 46.31593323 C-0.08954365 42.47720621 -0.07971364 38.63851681 -0.06866455 34.79980469 C-0.05844978 30.88542184 -0.05387077 26.97103294 -0.04882812 23.05664062 C-0.03809133 15.37107459 -0.02049479 7.68554735 0 0 Z " fill="#2876B9" transform="translate(68,96)"/>
<path d="M0 0 C2.36957166 1.77038748 4.3110012 3.89334874 6.3125 6.0625 C7.45900566 7.25966559 8.6074369 8.45499012 9.7578125 9.6484375 C10.31114258 10.2269043 10.86447266 10.80537109 11.43457031 11.40136719 C13.98810364 14.00906154 16.72742941 16.37544886 19.51171875 18.73046875 C22.97102949 21.68132437 22.97102949 21.68132437 23.3125 25.4375 C23 29 23 29 21.82519531 30.69506836 C19.31916475 32.48676624 17.54912302 32.39963242 14.484375 32.44140625 C13.39769531 32.46783203 12.31101563 32.49425781 11.19140625 32.52148438 C10.05574219 32.53501953 8.92007813 32.54855469 7.75 32.5625 C-2.30461009 32.65920534 -2.30461009 32.65920534 -12 35 C-12 30.71 -12 26.42 -12 22 C-7.42572908 20.47524303 -3.70715168 19.5648582 1 19 C-0.10021484 18.03900391 -0.10021484 18.03900391 -1.22265625 17.05859375 C-2.15980469 16.19363281 -3.09695312 15.32867187 -4.0625 14.4375 C-5.00222656 13.59058594 -5.94195312 12.74367188 -6.91015625 11.87109375 C-9 9 -9 9 -8.99609375 5.28515625 C-7.52012643 0.41735814 -4.85823744 -0.90434723 0 0 Z " fill="#F8FAFC" transform="translate(159,75)"/>
<path d="M0 0 C1.32451172 0.46792969 1.32451172 0.46792969 2.67578125 0.9453125 C6.34933372 2.11083444 9.92636626 2.69290081 13.73046875 3.2421875 C16.6234886 4.20818724 17.51222816 5.37682333 19 8 C18.75925978 11.37036311 18.41201979 12.58798021 16 15 C13.06640625 15.265625 13.06640625 15.265625 9.5625 15.25 C7.83193359 15.25773438 7.83193359 15.25773438 6.06640625 15.265625 C3 15 3 15 0 13 C-0.29296875 9.9609375 -0.29296875 9.9609375 -0.1875 6.375 C-0.16042969 5.18648437 -0.13335937 3.99796875 -0.10546875 2.7734375 C-0.07066406 1.85820312 -0.03585938 0.94296875 0 0 Z " fill="#F1F6FA" transform="translate(147,144)"/>
</svg>
